<?xml version="1.0" standalone="no"?>
<!DOCTYPE svg PUBLIC "-//W3C//DTD SVG 20010904//EN"
 "http://www.w3.org/TR/2001/REC-SVG-20010904/DTD/svg10.dtd">
<svg version="1.0" xmlns="http://www.w3.org/2000/svg"
 width="1088.000000pt" height="1088.000000pt" viewBox="0 0 1088.000000 1088.000000"
 preserveAspectRatio="xMidYMid meet">
<metadata>
Created by potrace 1.14, written by Peter Selinger 2001-2017
</metadata>
<g transform="translate(0.000000,1088.000000) scale(0.100000,-0.100000)"
fill="#000000" stroke="none">
<path d="M1849 10866 c-2 -2 -21 -7 -43 -10 -21 -4 -42 -9 -47 -12 -5 -3 -18
-7 -28 -9 -45 -9 -153 -71 -210 -123 -95 -84 -166 -202 -199 -332 -10 -36 -8
-4207 1 -4255 4 -22 13 -65 18 -95 17 -94 20 -104 26 -125 4 -11 8 -26 10 -32
6 -23 10 -38 16 -53 3 -8 17 -47 32 -87 59 -160 161 -335 285 -487 31 -37 177
-182 220 -218 25 -21 50 -42 56 -47 31 -25 164 -111 172 -111 6 0 12 -4 14 -9
9 -24 333 -159 418 -175 14 -2 25 -5 25 -6 0 -2 20 -6 65 -14 19 -4 42 -9 50
-11 15 -5 84 -13 155 -20 22 -2 371 -4 776 -5 507 -1 747 -4 770 -12 19 -6 41
-13 49 -16 8 -3 20 -6 25 -7 22 -5 105 -67 134 -100 44 -50 89 -144 97 -201 6
-43 9 -1012 4 -1039 -1 -5 -1 -14 0 -20 3 -12 2 -926 0 -940 -1 -5 -1 -14 0
-20 1 -5 3 -233 5 -505 1 -272 5 -510 8 -528 18 -99 28 -147 39 -185 6 -23 12
-44 13 -47 3 -15 29 -86 34 -95 3 -5 6 -15 7 -21 1 -6 21 -48 44 -95 156 -313
400 -543 730 -687 53 -23 206 -71 247 -77 15 -2 39 -7 53 -10 47 -12 145 -19
255 -19 175 1 298 21 460 75 80 28 300 137 321 160 10 11 21 19 26 19 25 0
233 195 310 290 185 229 273 336 280 338 4 2 8 10 8 17 0 7 4 15 9 17 7 3 86
97 189 227 15 19 41 50 57 70 17 20 46 56 65 81 19 25 39 50 45 55 6 6 29 33
50 60 22 28 42 52 45 55 3 3 21 25 40 50 19 25 37 47 40 50 4 3 24 28 46 55
21 28 49 61 61 75 12 14 72 88 135 165 62 77 119 147 125 155 7 8 58 71 113
140 120 149 99 123 212 262 51 62 109 133 128 158 19 25 37 47 41 50 6 5 51
60 167 205 39 50 78 97 85 105 72 78 207 261 207 279 0 6 5 11 10 11 6 0 9 3
8 7 -1 5 5 22 14 38 38 72 88 246 80 278 -1 4 1 7 6 7 9 0 7 206 -3 280 -4 30
-12 61 -17 68 -6 6 -8 12 -5 12 10 0 -24 101 -57 170 -94 193 -247 349 -437
445 -56 29 -148 63 -186 71 -49 9 -69 13 -93 20 -14 3 -842 7 -1840 9 -998 1
-1830 5 -1849 9 -52 11 -133 48 -165 76 -63 56 -74 68 -99 111 -60 104 -57 47
-57 1290 1 1024 2 1141 17 1171 36 74 106 127 180 134 27 3 676 7 1443 9 767
1 1402 4 1410 5 102 11 191 27 260 46 30 8 63 17 73 19 97 22 313 122 432 200
162 105 325 253 421 381 16 22 31 41 34 44 13 11 100 149 125 195 14 28 29 57
34 65 19 35 51 106 51 112 0 4 5 19 12 35 6 15 12 30 13 33 1 3 11 37 24 75
12 39 24 79 27 90 30 146 34 173 41 260 12 136 6 343 -12 418 -3 12 -7 36 -10
52 -11 79 -47 205 -86 307 -35 91 -126 271 -140 276 -5 2 -9 8 -9 14 0 9 -51
88 -75 115 -5 7 -14 18 -20 25 -70 91 -176 201 -258 268 -17 14 -39 33 -48 42
-10 9 -32 24 -48 33 -17 8 -31 20 -31 25 0 5 -11 12 -25 16 -14 3 -25 10 -25
14 0 4 -11 11 -25 14 -14 4 -25 10 -25 14 0 4 -48 31 -107 59 -92 44 -121 57
-153 68 -6 2 -40 15 -65 25 -62 23 -158 47 -320 77 -41 7 -6008 17 -6016 9z"/>
<path d="M2700 2790 c-91 -24 -162 -65 -229 -129 -75 -73 -102 -112 -134 -192
-64 -160 -46 -351 47 -498 43 -67 134 -147 210 -185 91 -45 172 -63 265 -59
204 8 375 119 466 301 30 62 36 80 50 152 7 35 7 149 0 185 -31 163 -154 325
-293 386 -26 12 -56 25 -67 30 -63 29 -224 34 -315 9z m275 -49 c17 -7 32 -13
35 -13 14 -2 60 -25 100 -51 65 -42 134 -121 170 -193 34 -70 40 -90 45 -149
2 -22 5 -42 5 -45 5 -15 -3 -100 -11 -135 -22 -89 -89 -202 -146 -248 -13 -10
-29 -24 -36 -31 -18 -17 -76 -50 -124 -69 -69 -27 -179 -37 -261 -23 -42 7
-152 47 -152 55 0 3 -13 12 -28 19 -30 13 -46 27 -102 88 -81 88 -121 198
-121 332 0 154 85 307 221 399 41 28 135 66 185 76 40 8 191 -1 220 -12z"/>
<path d="M2644 2270 l1 -285 34 0 34 0 -1 108 c-1 104 0 107 21 108 63 4 86 1
99 -12 34 -36 158 -192 158 -200 0 -5 13 -8 28 -7 15 1 33 -1 39 -5 6 -4 14
-3 17 2 3 5 -32 56 -78 112 -46 57 -83 106 -80 110 2 4 16 9 32 12 40 8 91 56
106 101 32 92 -10 192 -94 228 -14 6 -91 11 -171 12 l-146 1 1 -285z m286 210
c61 -21 87 -124 42 -173 -30 -34 -55 -41 -159 -43 l-101 -2 0 115 0 114 102
-3 c55 -2 108 -6 116 -8z"/>
</g>
</svg>
