<svg id="Group_5" data-name="Group 5" xmlns="http://www.w3.org/2000/svg" width="26.019" height="34.251" viewBox="0 0 26.019 34.251">
  <g id="Group_4" data-name="Group 4">
    <g id="Group_3" data-name="Group 3" transform="translate(3.107 25.395)">
      <g id="Group_1" data-name="Group 1" transform="translate(1.097 0.807)">
        <path id="Path_1" data-name="Path 1" d="M326.1,353.06h-.352v.7h-.215V351.95h.717a.544.544,0,0,1,.614.559.523.523,0,0,1-.51.546l.58.706h-.267Zm-.352-.192h.481c.287,0,.417-.155.417-.359s-.132-.355-.417-.355h-.481Z" transform="translate(-325.538 -351.95)" fill="#fff"/>
      </g>
      <g id="Group_2" data-name="Group 2">
        <path id="Path_2" data-name="Path 2" d="M325.062,353.765a1.712,1.712,0,1,1,1.712-1.712A1.714,1.714,0,0,1,325.062,353.765Zm0-3.262a1.55,1.55,0,1,0,1.55,1.55A1.552,1.552,0,0,0,325.062,350.5Z" transform="translate(-323.35 -350.341)" fill="#fff"/>
      </g>
    </g>
    <path id="Path_3" data-name="Path 3" d="M337.081,310.524a5.417,5.417,0,0,0,5.417-5.417h0a5.417,5.417,0,0,0-5.417-5.417H319.108a1.955,1.955,0,0,0-1.955,1.955v12.293a5.418,5.418,0,0,0,5.417,5.417H326.7a1.264,1.264,0,0,1,1.264,1.265v8.821a4.492,4.492,0,0,0,7.978,2.832l6.552-8.066a2.988,2.988,0,0,0-2.319-4.872H329.252a1.264,1.264,0,0,1-1.264-1.265v-6.83a.715.715,0,0,1,.715-.715Z" transform="translate(-317.153 -299.689)" fill="#fff"/>
  </g>
</svg>
