<svg xmlns="http://www.w3.org/2000/svg" width="413.448" height="76.17" viewBox="0 0 413.448 76.17">
  <g id="Group_8153" data-name="Group 8153" transform="translate(-1156.665 -158.009)">
    <path id="Path_5730" data-name="Path 5730" d="M549.569,191.191V178.26h-58.62v73.629h14.064V225.315h40.171V212.382H505.013v-21.19Z" transform="translate(665.716 -18.98)" fill="#14141e"/>
    <path id="Path_5731" data-name="Path 5731" d="M564.765,178.034v44.241c0,12.119-5.336,18.008-16.314,18.008-11.071,0-16.452-5.889-16.452-18.008V178.034H518.641v46.928c0,17.517,11.144,27.975,29.81,27.975,18.579,0,29.669-10.458,29.669-27.975V178.034Z" transform="translate(715.835 -19.39)" fill="#14141e"/>
    <path id="Path_5732" data-name="Path 5732" d="M563.3,239.947l39.2-50,.142-.18V178.26h-56.37V190.2h39.06l-39.06,50-.14,11.685h56.792V239.947Z" transform="translate(765.589 -18.98)" fill="#14141e"/>
    <path id="Path_5733" data-name="Path 5733" d="M586.524,239.24V178.26H573.169v58.251c0,9.916,6.064,15.378,17.075,15.378h18.835V239.24Z" transform="translate(814.523 -18.981)" fill="#14141e"/>
    <path id="Path_5734" data-name="Path 5734" d="M650.123,220.869V208.733c-.267-19.658-11.284-30.925-30.234-30.925-18.823,0-30.518,11.852-30.518,30.945v14.283c0,19.09,11.695,30.942,30.518,30.942,16.733,0,28.408-9.332,30-23.881H636.462c-1.349,7.452-6.921,11.231-16.573,11.231-11.869,0-17.157-5.642-17.157-18.292v-2.166Zm-47.391-12.116c0-12.51,5.606-18.579,17.157-18.579,10.807,0,16.643,6.423,16.873,18.579v.177H602.732Z" transform="translate(843.847 -19.799)" fill="#14141e"/>
    <path id="Path_5735" data-name="Path 5735" d="M677.221,220.869V208.733c-.267-19.658-11.285-30.925-30.234-30.925-18.826,0-30.518,11.852-30.518,30.945v14.283c0,19.09,11.692,30.942,30.518,30.942,16.73,0,28.405-9.332,30-23.881H663.56c-1.349,7.452-6.921,11.231-16.573,11.231-11.869,0-17.157-5.642-17.157-18.292v-2.166ZM629.83,208.753c0-12.51,5.606-18.579,17.157-18.579,10.8,0,16.643,6.423,16.873,18.579v.177H629.83Z" transform="translate(892.891 -19.799)" fill="#14141e"/>
  </g>
</svg>
