<svg id="Group_8152" data-name="Group 8152" xmlns="http://www.w3.org/2000/svg" width="85.827" height="112.986" viewBox="0 0 85.827 112.986">
  <g id="Group_8151" data-name="Group 8151" transform="translate(10.248 83.774)">
    <g id="Group_8149" data-name="Group 8149" transform="translate(3.619 2.658)">
      <path id="Path_5736" data-name="Path 5736" d="M171.882,205.681h-1.16v2.313h-.708v-5.977h2.363a1.794,1.794,0,0,1,2.023,1.846,1.725,1.725,0,0,1-1.68,1.8l1.911,2.329h-.879Zm-1.16-.632h1.588c.947,0,1.374-.511,1.374-1.186s-.436-1.172-1.374-1.172h-1.588Z" transform="translate(-170.013 -202.017)" fill="#0a8989"/>
    </g>
    <g id="Group_8150" data-name="Group 8150">
      <path id="Path_5737" data-name="Path 5737" d="M174.373,212.367a5.648,5.648,0,1,1,5.648-5.648A5.655,5.655,0,0,1,174.373,212.367Zm0-10.762a5.113,5.113,0,1,0,5.114,5.114A5.12,5.12,0,0,0,174.373,201.6Z" transform="translate(-168.725 -201.071)" fill="#0a8989"/>
    </g>
  </g>
  <path id="Path_5738" data-name="Path 5738" d="M230.812,207a17.868,17.868,0,0,0,17.868-17.868h0a17.869,17.869,0,0,0-17.868-17.871H171.527a6.449,6.449,0,0,0-6.449,6.449v40.552a17.868,17.868,0,0,0,17.868,17.868h13.631a4.173,4.173,0,0,1,4.173,4.173v29.1c0,13.951,17.522,20.169,26.317,9.34l21.613-26.607a9.857,9.857,0,0,0-7.648-16.073H204.989a4.17,4.17,0,0,1-4.173-4.173v-22.53a2.359,2.359,0,0,1,2.357-2.36Z" transform="translate(-165.078 -171.257)" fill="#0a8989"/>
</svg>
