<svg xmlns="http://www.w3.org/2000/svg" width="164.504" height="34.251" viewBox="0 0 164.504 34.251">
  <g id="Group_7" data-name="Group 7" transform="translate(-317.153 -299.689)">
    <g id="Group_5" data-name="Group 5" transform="translate(317.153 299.689)">
      <g id="Group_4" data-name="Group 4">
        <g id="Group_3" data-name="Group 3" transform="translate(3.107 25.395)">
          <g id="Group_1" data-name="Group 1" transform="translate(1.097 0.807)">
            <path id="Path_1" data-name="Path 1" d="M326.1,353.06h-.352v.7h-.215V351.95h.717a.544.544,0,0,1,.614.559.523.523,0,0,1-.51.546l.58.706h-.267Zm-.352-.192h.481c.287,0,.417-.155.417-.359s-.132-.355-.417-.355h-.481Z" transform="translate(-325.538 -351.95)" fill="#fff"/>
          </g>
          <g id="Group_2" data-name="Group 2">
            <path id="Path_2" data-name="Path 2" d="M325.062,353.765a1.712,1.712,0,1,1,1.712-1.712A1.714,1.714,0,0,1,325.062,353.765Zm0-3.262a1.55,1.55,0,1,0,1.55,1.55A1.552,1.552,0,0,0,325.062,350.5Z" transform="translate(-323.35 -350.341)" fill="#fff"/>
          </g>
        </g>
        <path id="Path_3" data-name="Path 3" d="M337.081,310.524a5.417,5.417,0,0,0,5.417-5.417h0a5.417,5.417,0,0,0-5.417-5.417H319.108a1.955,1.955,0,0,0-1.955,1.955v12.293a5.418,5.418,0,0,0,5.417,5.417H326.7a1.264,1.264,0,0,1,1.264,1.265v8.821a4.492,4.492,0,0,0,7.978,2.832l6.552-8.066a2.988,2.988,0,0,0-2.319-4.872H329.252a1.264,1.264,0,0,1-1.264-1.265v-6.83a.715.715,0,0,1,.715-.715Z" transform="translate(-317.153 -299.689)" fill="#fff"/>
      </g>
    </g>
    <g id="Group_6" data-name="Group 6" transform="translate(356.059 304.977)">
      <path id="Path_4" data-name="Path 4" d="M412.953,315.038v-4.015h-18.2v22.86h4.367v-8.251h12.472v-4.015H399.119v-6.579Z" transform="translate(-394.753 -310.629)" fill="#fff"/>
      <path id="Path_5" data-name="Path 5" d="M492.292,330.175l12.17-15.524.044-.056v-3.573H487v3.708h12.127L487,330.255l-.044,3.628h17.633v-3.708Z" transform="translate(-440.731 -310.629)" fill="#fff"/>
      <path id="Path_6" data-name="Path 6" d="M536.8,329.956V311.023h-4.147v18.085c0,3.079,1.883,4.775,5.3,4.775H543.8v-3.927Z" transform="translate(-463.515 -310.629)" fill="#fff"/>
      <path id="Path_7" data-name="Path 7" d="M579.709,323.606v-3.768c-.082-6.1-3.5-9.6-9.387-9.6-5.844,0-9.474,3.68-9.474,9.607v4.435c0,5.927,3.63,9.607,9.474,9.607,5.195,0,8.82-2.9,9.316-7.414h-4.171c-.419,2.313-2.148,3.487-5.145,3.487-3.685,0-5.327-1.751-5.327-5.679v-.672ZM565,319.844c0-3.884,1.741-5.767,5.327-5.767,3.355,0,5.167,1.994,5.239,5.767v.055H565Z" transform="translate(-477.573 -310.237)" fill="#fff"/>
      <path id="Path_8" data-name="Path 8" d="M457.077,323.606v-3.768c-.082-6.1-3.5-9.6-9.387-9.6-5.844,0-9.474,3.68-9.474,9.607v4.435c0,5.927,3.63,9.607,9.474,9.607,5.195,0,8.82-2.9,9.315-7.414h-4.17c-.419,2.313-2.148,3.487-5.145,3.487-3.685,0-5.327-1.751-5.327-5.679v-.672Zm-14.713-3.762c0-3.884,1.741-5.767,5.327-5.767,3.355,0,5.167,1.994,5.239,5.767v.055H442.364Z" transform="translate(-416.425 -310.237)" fill="#fff"/>
      <path id="Path_9" data-name="Path 9" d="M626.5,323.606v-3.768c-.083-6.1-3.5-9.6-9.387-9.6-5.844,0-9.475,3.68-9.475,9.607v4.435c0,5.927,3.63,9.607,9.475,9.607,5.195,0,8.819-2.9,9.315-7.414h-4.17c-.419,2.313-2.148,3.487-5.145,3.487-3.686,0-5.327-1.751-5.327-5.679v-.672Zm-14.714-3.762c0-3.884,1.741-5.767,5.327-5.767,3.355,0,5.167,1.994,5.239,5.767v.055H611.789Z" transform="translate(-500.905 -310.237)" fill="#fff"/>
    </g>
  </g>
</svg>
